<svg xmlns="http://www.w3.org/2000/svg" viewBox="0 0 80 80">
    <path class="logo"
          d="M50,10C27.91,10,10,28.36,10,51A40.94,40.94,0,0,0,37.36,89.93c2,.38,2.73-.89,2.73-2s0-3.55-.06-7c-11.12,2.48-13.47-5.5-13.47-5.5-1.82-4.74-4.44-6-4.44-6-3.63-2.54.27-2.49.27-2.49,4,.29,6.13,4.22,6.13,4.22,3.57,6.27,9.36,4.46,11.64,3.41a8.82,8.82,0,0,1,2.54-5.48c-8.88-1-18.22-4.56-18.22-20.27a16.09,16.09,0,0,1,4.12-11A15.06,15.06,0,0,1,29,27s3.36-1.1,11,4.2a37,37,0,0,1,20,0c7.63-5.3,11-4.2,11-4.2a15.06,15.06,0,0,1,.39,10.85,16,16,0,0,1,4.11,11c0,15.75-9.35,19.22-18.26,20.24C58.69,70.37,60,72.88,60,76.7c0,5.48,0,9.91,0,11.25,0,1.1.72,2.38,2.75,2A40.93,40.93,0,0,0,90,51C90,28.36,72.09,10,50,10Z"
          transform="translate(-10 -10)"/>
</svg>